<svg fill="#eee" version="1" xmlns="http://www.w3.org/2000/svg" width="298.001" height="345.097" viewBox="0 0 298.001 345.097"><path d="M293.057 157.98a148.438 148.438 0 0 0-28.273-55.688l8.567-8.563c6.077-6.08 6.077-15.93 0-22-3.33-3.34-7.78-4.658-12.126-4.335-3.596.254-7.146 1.596-9.866 4.333l-8.563 8.56c-9.083-7.355-19.08-13.553-29.734-18.628-9.617-4.558-19.75-8.195-30.34-10.67-.087-.015-.203-.015-.31-.037-4.586-1.065-9.203-1.985-13.96-2.613V38.9h6.88c10.735 0 19.444-8.71 19.444-19.473 0-10.725-8.71-19.43-19.446-19.43h-53.832c-1.713 0-3.356.287-4.96.696 0 0-.01.03-.02.03-8.326 2.2-14.463 9.714-14.463 18.703 0 10.764 8.71 19.473 19.442 19.473h8.062v9.44C79.47 54.874 37.337 86.337 15.7 129.79c-4.32 8.66-7.893 17.746-10.454 27.24A148.006 148.006 0 0 0 0 196.09c0 64.416 40.952 119.158 98.227 139.945 15.87 5.734 32.922 9.062 50.772 9.062 7.432 0 14.733-.56 21.85-1.633.762-.096 1.484-.32 2.25-.45 20.967-3.433 40.53-11.17 57.597-22.393 23.57-15.493 42.377-37.46 54.08-63.386C293.2 238.534 298 217.908 298 196.09c0-13.17-1.727-25.936-4.946-38.11zm-66.21 115.963c-14.193 14.19-31.58 23.877-50.54 28.735-6.5 1.626-13.257 2.51-20.066 2.966-.97.06-1.88.23-2.842.24-1.476.073-2.916.3-4.396.3-4.043 0-8.06-.26-12.033-.69-24.86-2.697-47.886-13.608-65.824-31.55-20.796-20.794-32.26-48.454-32.26-77.854 0-2.33.198-4.6.334-6.898 1.658-26.815 12.765-51.82 31.923-70.97 2.383-2.37 4.875-4.594 7.42-6.735l.017-.013c19.75-16.48 44.38-25.5 70.42-25.5 4.76 0 9.44.327 14.052.93a109.883 109.883 0 0 1 40.743 13.758c.136.083.286.184.41.28 8.15 4.744 15.797 10.446 22.645 17.28 1.608 1.622 3.067 3.335 4.55 5.032.053.054.103.12.166.184 3.025 3.446 5.73 7.14 8.292 10.887 1.63 2.442 3.264 4.894 4.694 7.43a108.885 108.885 0 0 1 14.386 51.07c.038 1.09.152 2.148.152 3.262-.002 29.4-11.445 57.06-32.242 77.853z"/></svg>