<svg xmlns="http://www.w3.org/2000/svg" fill="#fff" viewBox="0 0 48.832 48.832"><path d="M15.42 32.814h6.81v1.57h-6.81v1.296h21.418v-1.295h-7.94v-1.57h8.83v-3.588H15.42zM9.49 11.23h32.467v12.98h2.782V8.45H6.705v8.69H9.49z"/><path d="M0 39.8h14.523V18.012H0V39.8zm7.568-1.095a.7.7 0 1 1 0-1.4.7.7 0 0 1 0 1.4zM2.1 20.113h10.325v16.072H2.1V20.113zm36.615 4.933v15.337h10.117V25.046H38.715zm5.264.634c.12 0 .22.1.22.22 0 .122-.1.223-.22.223a.224.224 0 0 1-.225-.222c0-.12.1-.22.223-.22zm-1.316.736h2.623v.212h-2.623v-.212zM43.89 39.72a.524.524 0 1 1 0-1.047.524.524 0 0 1 0 1.048zm3.48-1.805a807.7 807.7 0 0 1-7.19.012V27.382h7.19v10.533z"/></svg>